<svg width="390" height="458" viewBox="0 0 390 458" fill="none" xmlns="http://www.w3.org/2000/svg">
<mask id="mask0" mask-type="alpha" maskUnits="userSpaceOnUse" x="0" y="0" width="390" height="458">
<rect x="9" y="9" width="371.3" height="440" stroke="black" stroke-width="18"/>
</mask>
<g mask="url(#mask0)">
<line x1="366.242" y1="597.324" x2="1013.69" y2="-50.1217" stroke="black" stroke-width="24"/>
<line x1="303.787" y1="597.324" x2="951.233" y2="-50.1217" stroke="black" stroke-width="24"/>
<line x1="241.333" y1="597.324" x2="888.779" y2="-50.1217" stroke="black" stroke-width="24"/>
<line x1="178.878" y1="597.324" x2="826.323" y2="-50.1217" stroke="black" stroke-width="24"/>
<line x1="116.424" y1="597.324" x2="763.869" y2="-50.1217" stroke="black" stroke-width="24"/>
<line x1="53.9688" y1="597.324" x2="701.414" y2="-50.1217" stroke="black" stroke-width="24"/>
<line x1="-8.48528" y1="597.324" x2="638.96" y2="-50.1217" stroke="black" stroke-width="24"/>
<line x1="-70.9404" y1="597.324" x2="576.505" y2="-50.1217" stroke="black" stroke-width="24"/>
<line x1="-133.394" y1="597.324" x2="514.051" y2="-50.1217" stroke="black" stroke-width="24"/>
<line x1="-195.85" y1="597.324" x2="451.596" y2="-50.1217" stroke="black" stroke-width="24"/>
<line x1="-258.304" y1="597.324" x2="389.142" y2="-50.1217" stroke="black" stroke-width="24"/>
<line x1="-320.758" y1="597.324" x2="326.688" y2="-50.1217" stroke="black" stroke-width="24"/>
<line x1="-383.213" y1="597.324" x2="264.233" y2="-50.1217" stroke="black" stroke-width="24"/>
</g>
</svg>
